<svg xmlns="http://www.w3.org/2000/svg" width="48" height="48" viewBox="0 0 48 48">
    <path fill="#FFF" fill-rule="evenodd" d="M38.055 3.851c5.407 2.694 8.75 9.208 9.936 19.359a1.388 1.388 0 0 1-1.182 1.53l-4.793.713c.073 2.833-.044 9.34-2.444 12.512a1.405 1.405 0 0 1-1.638.455l-3.44-1.364c-1.373 2.068-4.834 6.653-9.689 8.714-.222.146-.489.23-.772.23-.349 0-.615-.084-.838-.23-4.854-2.06-8.316-6.646-9.69-8.714l-3.439 1.364a1.405 1.405 0 0 1-1.638-.455c-2.4-3.172-2.517-9.68-2.444-12.512l-4.793-.713A1.389 1.389 0 0 1 .01 23.21C1.197 13.045 4.54 6.529 9.943 3.84c5.777-2.872 11.966-.388 14.025.61 2.066-.998 8.288-3.488 14.087-.6zm-13.39 3.365a1.413 1.413 0 0 1-1.4-.002c-.062-.036-6.537-3.658-12.084-.886-1.997.997-3.687 2.73-5.024 5.147-1.502 2.716-2.576 6.319-3.198 10.724l4.683.697a1.39 1.39 0 0 1 1.188 1.46c-.142 2.197-.137 8.015 1.305 11.051l3.42-1.356a1.402 1.402 0 0 1 1.737.605c.034.061 3.517 6.064 8.708 8.435 5.191-2.371 8.674-8.374 8.71-8.437a1.406 1.406 0 0 1 1.736-.603l3.42 1.356c1.442-3.036 1.446-8.854 1.304-11.051a1.39 1.39 0 0 1 1.188-1.46l4.684-.697c-.622-4.398-1.696-7.996-3.198-10.71-1.338-2.418-3.03-4.151-5.029-5.152-5.573-2.79-12.085.842-12.15.879zm5.04 4.95c1.056 0 2.03.582 2.544 1.517l1.343 2.45a4.202 4.202 0 0 1-.153 4.304l-3.02 4.677c-.062.988-.276 3.632-.904 5.758a4.485 4.485 0 0 1-4.19 3.236l-1.982.05h-.075l-1.321-.04a4.498 4.498 0 0 1-4.212-3.398c-.518-2.072-.61-4.59-.625-5.61l-3.206-4.612a4.235 4.235 0 0 1-.233-4.423l1.312-2.392a2.906 2.906 0 0 1 2.545-1.516h12.176zm0 2.79H17.527a.156.156 0 0 0-.137.082L16.08 17.43a1.4 1.4 0 0 0 .077 1.462l3.455 4.968c.166.24.253.525.251.816v.223c.008.748.068 3.233.543 5.137.185.738.852 1.27 1.623 1.294l1.284.038 1.946-.049a1.73 1.73 0 0 0 1.617-1.246c.672-2.275.811-5.436.812-5.468.01-.25.088-.495.224-.705l3.222-4.99c.278-.43.297-.974.051-1.423l-1.344-2.45a.155.155 0 0 0-.136-.08z"/>
</svg>
